<svg aria-hidden="true" style="position: absolute; width: 0; height: 0; overflow: hidden;" version="1.1" xmlns="http://www.w3.org/2000/svg" xmlns:xlink="http://www.w3.org/1999/xlink">
<defs>
<symbol id="icon-logo" viewBox="0 0 32 32">
<path fill="#85aa9f" style="fill: var(--color1, #85aa9f)" d="M32 16c0 8.837-7.163 16-16 16s-16-7.163-16-16c0-8.837 7.163-16 16-16s16 7.163 16 16z"></path>
<path fill="#fcfcfc" style="fill: var(--color2, #fcfcfc)" d="M16.354 15.2c4.755-3.586 4.965-5.76 0-9.6-5.060 3.922-4.408 6.001 0 9.6zM15.2 16.446c-3.586-4.755-5.76-4.965-9.6 0 3.922 5.060 6.001 4.408 9.6 0zM27.2 16.446c-3.586-4.755-5.76-4.965-9.6 0 3.922 5.060 6.001 4.408 9.6 0zM16.354 27.2c4.755-3.586 4.965-5.76 0-9.6-5.060 3.922-4.408 6.001 0 9.6z"></path>
</symbol>
<symbol id="icon-error-warning" viewBox="0 0 32 32">
<path fill="#d80027" style="fill: var(--color1, #d80027)" d="M16 29.333c-7.364 0-13.333-5.969-13.333-13.333s5.969-13.333 13.333-13.333c7.364 0 13.333 5.969 13.333 13.333s-5.969 13.333-13.333 13.333zM14.666 20v2.667h2.667v-2.667h-2.667zM14.666 9.333v8h2.667v-8h-2.667z"></path>
</symbol>
<symbol id="icon-checkbox-circle" viewBox="0 0 32 32">
<path fill="#3cbf61" style="fill: var(--color2, #3cbf61)" d="M16 29.333c-7.364 0-13.333-5.969-13.333-13.333s5.969-13.333 13.333-13.333c7.364 0 13.333 5.969 13.333 13.333s-5.969 13.333-13.333 13.333zM14.459 21.98l9.427-9.428-1.885-1.885-7.541 7.543-3.772-3.772-1.885 1.885 5.657 5.657z"></path>
</symbol>
<symbol id="icon-burger" viewBox="0 0 47 32">
<path stroke-linejoin="miter" stroke-linecap="round" stroke-miterlimit="4" stroke-width="2.9091" d="M8.537 5.333h36.553"></path>
<path stroke-linejoin="miter" stroke-linecap="round" stroke-miterlimit="4" stroke-width="2.9091" d="M8.537 24.727h36.553"></path>
<path stroke-linejoin="miter" stroke-linecap="round" stroke-miterlimit="4" stroke-width="2.9091" d="M19.668 15.030h25.423"></path>
</symbol>
<symbol id="icon-arrow-right" viewBox="0 0 32 32">
<path stroke-linejoin="round" stroke-linecap="round" stroke-miterlimit="4" stroke-width="2.4" d="M5.333 16h21.333M26.667 16l-5.333-5.333M26.667 16l-5.333 5.333"></path>
</symbol>
<symbol id="icon-plus" viewBox="0 0 32 32">
<path stroke-linejoin="round" stroke-linecap="round" stroke-miterlimit="4" stroke-width="2.4" d="M16 6.667v18.667"></path>
<path stroke-linejoin="round" stroke-linecap="round" stroke-miterlimit="4" stroke-width="2.4" d="M6.667 16h18.667"></path>
</symbol>
<symbol id="icon-chevron-down" viewBox="0 0 32 32">
<path d="M16 22.003l-10-10 1.4-1.4 8.6 8.6 8.6-8.6 1.4 1.4-10 10z"></path>
<path d="M16 22.003l-1.697 1.697 1.697 1.697 1.697-1.697-1.697-1.697zM6 12.003l-1.697-1.697-1.697 1.697 1.697 1.697 1.697-1.697zM7.4 10.603l1.697-1.697-1.697-1.697-1.697 1.697 1.697 1.697zM16 19.203l-1.697 1.697 1.697 1.697 1.697-1.697-1.697-1.697zM24.6 10.603l1.697-1.697-1.697-1.697-1.697 1.697 1.697 1.697zM26 12.003l1.697 1.697 1.697-1.697-1.697-1.697-1.697 1.697zM17.697 20.306l-10-10-3.394 3.394 10 10 3.394-3.394zM7.697 13.7l1.4-1.4-3.394-3.394-1.4 1.4 3.394 3.394zM5.703 12.3l8.6 8.6 3.394-3.394-8.6-8.6-3.394 3.394zM17.697 20.9l8.6-8.6-3.394-3.394-8.6 8.6 3.394 3.394zM22.903 12.3l1.4 1.4 3.394-3.394-1.4-1.4-3.394 3.394zM24.303 10.306l-10 10 3.394 3.394 10-10-3.394-3.394z"></path>
</symbol>
<symbol id="icon-search" viewBox="0 0 32 32">
<path stroke-linejoin="round" stroke-linecap="round" stroke-miterlimit="4" stroke-width="2.4" d="M14.667 25.333c5.891 0 10.667-4.776 10.667-10.667s-4.776-10.667-10.667-10.667c-5.891 0-10.667 4.776-10.667 10.667s4.776 10.667 10.667 10.667z"></path>
<path stroke-linejoin="round" stroke-linecap="round" stroke-miterlimit="4" stroke-width="2.4" d="M28 28l-5.8-5.8"></path>
</symbol>
<symbol id="icon-cross" viewBox="0 0 32 32">
<path fill="none" stroke="#fcfcfc" style="stroke: var(--color1, #fcfcfc)" stroke-linejoin="round" stroke-linecap="round" stroke-miterlimit="4" stroke-width="3.3333" d="M24 8l-16 16"></path>
<path fill="none" stroke="#fcfcfc" style="stroke: var(--color1, #fcfcfc)" stroke-linejoin="round" stroke-linecap="round" stroke-miterlimit="4" stroke-width="3.3333" d="M8 8l16 16"></path>
</symbol>
<symbol id="icon-ukraine" viewBox="0 0 32 32">
<path fill="#ffda44" style="fill: var(--color1, #ffda44)" d="M16 32c8.837 0 16-7.163 16-16s-7.163-16-16-16c-8.837 0-16 7.163-16 16s7.163 16 16 16z"></path>
<path fill="#338af3" style="fill: var(--color2, #338af3)" d="M0 16c0-8.836 7.163-16 16-16s16 7.163 16 16z"></path>
</symbol>
<symbol id="icon-united-kingdom" viewBox="0 0 32 32">
<path fill="#f0f0f0" style="fill: var(--color3, #f0f0f0)" d="M16 32c8.837 0 16-7.163 16-16s-7.163-16-16-16c-8.837 0-16 7.163-16 16s7.163 16 16 16z"></path>
<path fill="#0052b4" style="fill: var(--color4, #0052b4)" d="M3.307 6.259c-1.257 1.635-2.204 3.52-2.756 5.567h8.324l-5.567-5.567z"></path>
<path fill="#0052b4" style="fill: var(--color4, #0052b4)" d="M31.448 11.826c-0.552-2.047-1.5-3.932-2.756-5.567l-5.567 5.567h8.323z"></path>
<path fill="#0052b4" style="fill: var(--color4, #0052b4)" d="M0.551 20.174c0.552 2.047 1.5 3.932 2.756 5.567l5.567-5.567h-8.323z"></path>
<path fill="#0052b4" style="fill: var(--color4, #0052b4)" d="M25.741 3.308c-1.635-1.257-3.52-2.204-5.567-2.756v8.324l5.567-5.567z"></path>
<path fill="#0052b4" style="fill: var(--color4, #0052b4)" d="M6.259 28.692c1.635 1.257 3.52 2.204 5.567 2.756v-8.323l-5.567 5.567z"></path>
<path fill="#0052b4" style="fill: var(--color4, #0052b4)" d="M11.826 0.551c-2.047 0.552-3.932 1.5-5.567 2.756l5.567 5.567v-8.323z"></path>
<path fill="#0052b4" style="fill: var(--color4, #0052b4)" d="M20.174 31.449c2.047-0.552 3.932-1.5 5.567-2.756l-5.567-5.567v8.323z"></path>
<path fill="#0052b4" style="fill: var(--color4, #0052b4)" d="M23.125 20.174l5.567 5.567c1.257-1.635 2.204-3.52 2.756-5.567h-8.323z"></path>
<path fill="#d80027" style="fill: var(--color5, #d80027)" d="M31.865 13.913h-13.778v-13.778c-0.683-0.089-1.38-0.135-2.087-0.135s-1.404 0.046-2.087 0.135v13.778h-13.778c-0.089 0.683-0.135 1.38-0.135 2.087s0.046 1.404 0.135 2.087h13.778v13.778c0.683 0.089 1.38 0.135 2.087 0.135s1.404-0.046 2.087-0.135v-13.778h13.778c0.089-0.683 0.135-1.38 0.135-2.087s-0.047-1.404-0.135-2.087z"></path>
<path fill="#d80027" style="fill: var(--color5, #d80027)" d="M20.174 20.174l7.14 7.14c0.328-0.328 0.642-0.672 0.941-1.027l-6.113-6.113h-1.968z"></path>
<path fill="#d80027" style="fill: var(--color5, #d80027)" d="M11.826 20.174h-0l-7.14 7.14c0.328 0.328 0.671 0.642 1.027 0.941l6.113-6.113v-1.967z"></path>
<path fill="#d80027" style="fill: var(--color5, #d80027)" d="M11.826 11.826v-0l-7.14-7.14c-0.328 0.328-0.642 0.671-0.941 1.027l6.113 6.113 1.968 0z"></path>
<path fill="#d80027" style="fill: var(--color5, #d80027)" d="M20.174 11.826l7.14-7.14c-0.328-0.328-0.671-0.642-1.027-0.94l-6.113 6.113v1.968z"></path>
</symbol>
</defs>
</svg>
